{"title":"Meet the Robinsons 3D SBS mkv","uid":6880083,"size":982498269,"categoryP":"video","categoryS":"3d","magnet":"?xt=urn:btih:9a0447c64654bedaf7e41ee11cd0cdec37c6b2f2&amp;dn=Meet+the+Robinsons+3D+SBS+mkv&amp;tr=udp%3A%2F%2Ftracker.openbittorrent.com%3A80&amp;tr=udp%3A%2F%2Fopen.demonii.com%3A1337&amp;tr=udp%3A%2F%2Ftracker.coppersurfer.tk%3A6969&amp;tr=udp%3A%2F%2Fexodus.desync.com%3A6969","seeders":0,"leechers":1,"uploader":"stu181","files":1,"time":1323622564,"description":"Storyline\n\nLewis an orphan wants to see what his mother looked like. So he invents a machine that looks through your brain so you can see your memories. But this weird kid says he's from the future and warns him about a guy in a bowler hat. The bowler hat guy messes with his invention and it fails. He decides that he's a failure and no one wants him. But the kid that warned him about the guy is here on a mission to find the bowler hat guy that wants to destroy Lewis. To prove he's from the future he takes lewis to the future. But the time machine breaks and he's stuck in the future until he fixes it. In the meantime he spends quality time with the family. But the bowler hat guy is about to alter time and it's up to Lewis to save the future.\n\n\nFormat                           : Matroska\nFormat version                   : Version 1\nFile size                        : 937 MiB\nDuration                         : 1h 35mn\nOverall bit rate                 : 1 377 Kbps\nEncoded date                     : UTC 2011-12-03 10:11:04\nWriting application              : AVSMatroskaFile\nWriting library                  : libebml v0.7.7 + libmatroska v0.8.1\n\nVideo\nID                               : 1\nFormat                           : AVC\nFormat/Info                      : Advanced Video Codec\nFormat profile                   : &lt;a class=&quot;__cf_email__&quot; href=&quot;/cdn-cgi/l/email-protection&quot; data-cfemail=&quot;8ec3efe7e0cec2bba0bf&quot;&gt;[email&amp;#160;protected]&lt;/a&gt;&lt;script cf-hash='f9e31' type=&quot;text/javascript&quot;&gt;\n/* &lt;![CDATA[ */!function(){try{var t=&quot;currentScript&quot;in document?document.currentScript:function(){for(var t=document.getElementsByTagName(&quot;script&quot;),e=t.length;e--;)if(t[e].getAttribute(&quot;cf-hash&quot;))return t[e]}();if(t&amp;&amp;t.previousSibling){var e,r,n,i,c=t.previousSibling,a=c.getAttribute(&quot;data-cfemail&quot;);if(a){for(e=&quot;&quot;,r=parseInt(a.substr(0,2),16),n=2;a.length-n;n+=2)i=parseInt(a.substr(n,2),16)^r,e+=String.fromCharCode(i);e=document.createTextNode(e),c.parentNode.replaceChild(e,c)}}}catch(u){}}();/* ]]&gt; */&lt;/script&gt;\nFormat settings, CABAC           : Yes\nFormat settings, ReFrames        : 1 frame\nCodec ID                         : V_MPEG4/ISO/AVC\nDuration                         : 1h 35mn\nBit rate                         : 1 158 Kbps\nWidth                            : 1 920 pixels\nHeight                           : 1 080 pixels\nDisplay aspect ratio             : 16:9\nFrame rate                       : 23.976 fps\nColor space                      : YUV\nChroma subsampling               : 4:2:0\nBit depth                        : 8 bits\nScan type                        : Progressive\nBits/(Pixel*Frame)               : 0.023\nStream size                      : 788 MiB (84%)\n\nAudio\nID                               : 2\nFormat                           : MPEG Audio\nFormat version                   : Version 1\nFormat profile                   : Layer 3\nCodec ID                         : A_MPEG/L3\nCodec ID/Hint                    : MP3\nDuration                         : 1h 35mn\nBit rate mode                    : Constant\nBit rate                         : 192 Kbps\nChannel(s)                       : 2 channels\nSampling rate                    : 44.1 KHz\nCompression mode                 : Lossy\nStream size                      : 131 MiB (14%)\nWriting library                  : LAMELAME\n\n","torrent":{"xt":"urn:btih:9a0447c64654bedaf7e41ee11cd0cdec37c6b2f2","amp;dn":"Meet+the+Robinsons+3D+SBS+mkv","amp;tr":["udp%3A%2F%2Ftracker.openbittorrent.com%3A80","udp%3A%2F%2Fopen.demonii.com%3A1337","udp%3A%2F%2Ftracker.coppersurfer.tk%3A6969","udp%3A%2F%2Fexodus.desync.com%3A6969"],"infoHash":"9a0447c64654bedaf7e41ee11cd0cdec37c6b2f2","infoHashBuffer":{"type":"Buffer","data":[154,4,71,198,70,84,190,218,247,228,30,225,28,208,205,236,55,198,178,242]},"announce":[],"urlList":[]}}